<svg width="40" height="36" viewBox="0 0 40 36" fill="none" xmlns="http://www.w3.org/2000/svg">
<path id="Icon" fill-rule="evenodd" clip-rule="evenodd" d="M18.5698 0.09547C16.3776 0.595521 14.6735 1.95702 13.7263 3.96519C13.3357 4.79322 13.1627 5.46422 13.0984 6.39963L13.0466 7.153L12.3879 7.53683C8.09308 10.0398 5.27109 14.4277 4.80213 19.3323L4.74393 19.9411L4.20958 20.219C2.65175 21.0292 1.4212 22.5578 0.846925 24.396C0.673284 24.9518 0.644012 25.2268 0.644012 26.3013C0.644012 27.3758 0.673284 27.6509 0.846925 28.2066C1.58107 30.5566 3.27374 32.2493 5.62374 32.9834C6.18615 33.1591 6.4476 33.186 7.57233 33.1836C8.79769 33.181 8.91556 33.1656 9.65022 32.9115L10.429 32.6422L10.7328 32.8815C11.8936 33.7963 13.7149 34.754 15.2485 35.2564C17.7171 36.0651 20.6089 36.2222 23.1942 35.6882C25.2046 35.273 27.69 34.1243 29.2672 32.8815L29.5709 32.6422L30.3498 32.9115C31.0844 33.1656 31.2023 33.181 32.4277 33.1836C33.5534 33.186 33.813 33.1592 34.3732 32.9833C36.7669 32.2317 38.4013 30.5972 39.153 28.2036C39.3269 27.6498 39.356 27.3769 39.356 26.3013C39.356 25.2268 39.3267 24.9518 39.1531 24.396C38.5788 22.5578 37.3482 21.0292 35.7904 20.219L35.2561 19.9411L35.1979 19.3323C34.7357 14.4983 31.9706 10.1374 27.7849 7.64093L26.9527 7.14451L26.905 6.3449C26.809 4.73519 26.1033 3.20836 24.8986 2.00327C24.077 1.18157 23.2818 0.690699 22.1522 0.308256C21.4391 0.0668908 21.2079 0.0306905 20.2165 0.00540215C19.4747 -0.0134775 18.913 0.0172666 18.5698 0.09547ZM14.0115 10.4032C14.5448 11.4085 15.6307 12.4384 16.7956 13.0437C17.9535 13.6454 18.5644 13.787 20 13.787C21.4356 13.787 22.0465 13.6454 23.2043 13.0437C24.3693 12.4384 25.4552 11.4085 25.9885 10.4032C26.1004 10.1923 26.2234 10.0198 26.2617 10.0198C26.3002 10.0198 26.5731 10.1819 26.8681 10.3799C29.0553 11.8483 30.744 13.9758 31.6662 16.4246C31.8752 16.9798 32.2397 18.4258 32.3276 19.0482C32.3718 19.3611 32.364 19.373 32.1155 19.373C31.6858 19.373 30.5568 19.6332 29.9594 19.8698C27.9193 20.678 26.4596 22.2634 25.7889 24.3991C25.615 24.9528 25.586 25.2257 25.586 26.3013C25.586 27.3766 25.6151 27.6499 25.7888 28.2029C26.0378 28.9958 26.467 29.8614 26.8784 30.4004C27.0488 30.6236 27.1878 30.8351 27.1873 30.8704C27.185 31.0734 25.2083 32.1152 24.0499 32.524C21.551 33.4057 18.456 33.406 15.9501 32.5248C14.8919 32.1528 13.4003 31.3888 12.8202 30.9217C12.801 30.9062 12.9421 30.6689 13.1339 30.3945C13.6021 29.7244 13.9657 28.9848 14.211 28.2036C14.3849 27.6498 14.414 27.3769 14.414 26.3013C14.414 24.9164 14.2782 24.2918 13.7462 23.2299C12.6682 21.0784 10.5379 19.5946 8.24923 19.4011C7.66681 19.3519 7.62143 19.3339 7.65538 19.1656C7.67556 19.0653 7.73843 18.7105 7.79516 18.377C8.02535 17.023 8.8099 15.1005 9.6329 13.8736C10.2316 12.9812 11.1424 11.9537 11.8832 11.3352C12.6493 10.6954 13.5806 10.0313 13.7214 10.0242C13.7691 10.0218 13.8996 10.1923 14.0115 10.4032Z" fill="#7F56D9"/>
</svg>
