<svg width="151" height="36" viewBox="0 0 151 36" fill="none" xmlns="http://www.w3.org/2000/svg">
<g id="AliExpress svg" clip-path="url(#clip0_2_4041)">
<g id="layer1">
<g id="g43">
<g id="g32">
<path id="path12" d="M38.8278 26.8081V2.99561H52.8408V5.99137H41.7337V13.308H51.7129V16.3037H41.7337V23.7739H53.6246V26.7697H38.8278V26.8081Z" fill="white" fill-opacity="0.5"/>
<path id="path14" d="M68.3443 26.808L63.5267 20.4708L58.7092 26.808H55.3063L61.8826 18.3392L54.9431 9.60156H58.7665L63.5076 16.15L68.3252 9.60156H72.0721L65.4958 18.3392L71.728 26.808H68.3443Z" fill="white" fill-opacity="0.5"/>
<path id="path16" d="M76.4114 24.254V35.9875H73.5056V18.4161C73.5056 13.9417 76.9084 9.1792 82.2039 9.1792C87.5759 9.1792 91.6287 12.5974 91.6287 18.2049C91.6287 23.6779 87.5185 27.4419 82.8539 27.4419C80.5981 27.4419 77.5393 26.4625 76.4114 24.254ZM88.5891 18.2049C88.5891 14.3642 86.1038 12.0982 81.726 12.3094C79.604 12.3862 76.354 13.9417 76.6217 19.4147C76.6981 21.2007 78.5334 24.5421 82.5671 24.5421C86.0465 24.5421 88.5891 22.5449 88.5891 18.2049Z" fill="white" fill-opacity="0.5"/>
<path id="path18" d="M94.1149 26.8081V9.60168H97.0208V11.4452C98.4354 9.81293 100.634 9.23682 102.966 9.23682V12.367C102.603 12.2902 99.1428 11.8677 97.0208 16.419V26.8657H94.1149V26.8081Z" fill="white" fill-opacity="0.5"/>
<path id="path20" d="M103.75 18.2049C103.75 13.2312 107.286 9.1792 112.18 9.1792C118.26 9.1792 120.535 13.2312 120.535 18.4161V19.8372H106.942C107.153 23.1018 110.058 24.811 112.754 24.7533C114.742 24.6765 116.08 24.1196 117.495 22.6986L119.407 24.6957C117.629 26.4049 115.373 27.5379 112.62 27.5379C107.42 27.4419 103.75 23.6011 103.75 18.2049ZM111.951 12.0982C109.198 12.0982 107.057 14.5178 106.923 17.1487H117.476C117.476 14.5754 115.641 12.0982 111.951 12.0982Z" fill="white" fill-opacity="0.5"/>
<path id="path22" d="M122.008 24.3888L124.13 22.4684C124.053 22.4684 125.2 23.6014 125.334 23.6782C125.831 24.1007 126.328 24.3888 126.959 24.5232C128.794 25.0225 132.121 24.8881 132.407 22.3148C132.541 20.8937 131.49 20.1064 130.285 19.6071C128.737 19.0309 127.035 18.8197 125.468 18.1092C123.69 17.3218 122.562 15.9776 122.562 13.9804C122.562 8.79541 129.922 7.93125 133.248 10.3509C133.382 10.4853 135.026 11.9832 134.95 11.9832L132.828 13.6923C131.757 12.4057 130.782 11.772 128.507 11.772C127.379 11.772 125.812 12.2713 125.525 13.4811C125.105 15.1902 127.016 15.8239 128.278 16.1888C129.979 16.6113 131.815 16.8993 133.306 17.8211C135.351 19.1078 135.848 21.8731 135.084 24.0047C134.243 26.3475 131.681 27.2693 129.425 27.3461C126.749 27.5189 124.416 26.674 122.505 24.7536C122.352 24.7536 122.008 24.3888 122.008 24.3888Z" fill="white" fill-opacity="0.5"/>
<path id="path24" d="M136.939 24.3885L139.061 22.4682C138.985 22.4682 140.132 23.6012 140.265 23.678C140.762 24.1005 141.26 24.3885 141.89 24.5229C143.726 25.0222 147.052 24.8878 147.339 22.3145C147.473 20.8935 146.421 20.1061 145.217 19.6068C143.668 19.0307 141.967 18.8195 140.399 18.1089C138.621 17.3216 137.493 15.9773 137.493 13.9801C137.493 8.79517 144.854 7.931 148.18 10.3507C148.314 10.4851 149.958 11.983 149.881 11.983L147.759 13.6921C146.689 12.4054 145.714 11.7717 143.439 11.7717C142.311 11.7717 140.743 12.271 140.457 13.4809C140.036 15.19 141.948 15.8237 143.209 16.1886C144.911 16.611 146.746 16.8991 148.237 17.8209C150.283 19.1075 150.78 21.8728 150.015 24.0044C149.174 26.3473 146.612 27.2691 144.357 27.3459C141.661 27.4803 139.329 26.6353 137.417 24.715C137.302 24.7534 136.939 24.3885 136.939 24.3885Z" fill="white" fill-opacity="0.5"/>
</g>
<g id="g41">
<path id="path34" d="M19.1366 26.8073L17.0146 21.123H5.54418L3.42216 26.8073H0.382507L9.57793 2.97559H12.9043L22.0424 26.8073H19.1366ZM11.1455 6.39383L6.82503 18.2041H15.8102L11.1455 6.39383Z" fill="white" fill-opacity="0.5"/>
<path id="path36" d="M23.9528 26.8076V2.99512H26.9351V26.8268H23.9528V26.8076Z" fill="white" fill-opacity="0.5"/>
<path id="path38" d="M31.3903 26.8076V9.94678H34.3726V26.8076H31.3903Z" fill="white" fill-opacity="0.5"/>
<path id="XMLID_1_" d="M37.2027 4.4738C37.2027 4.39698 37.2027 4.39698 37.2027 4.33937C37.2027 4.26256 37.2027 4.26256 37.2027 4.20495C34.9468 4.12813 33.0925 2.28458 33.0351 0.0185547C32.9586 0.0185547 32.9013 0.0185547 32.8248 0.0185547C32.7483 0.0185547 32.691 0.0185547 32.6145 0.0185547C32.5381 2.28458 30.7028 4.14734 28.447 4.20495C28.447 4.28176 28.447 4.28176 28.447 4.33937C28.447 4.41619 28.447 4.41618 28.447 4.4738C30.7028 4.55061 32.5572 6.39416 32.6145 8.66019C32.691 8.66019 32.7483 8.66019 32.8248 8.66019C32.9013 8.66019 32.9586 8.66019 33.0351 8.66019C33.0925 6.39416 34.9277 4.55061 37.2027 4.4738Z" fill="white" fill-opacity="0.5"/>
</g>
</g>
</g>
</g>
<defs>
<clipPath id="clip0_2_4041">
<rect width="150" height="36" fill="white" transform="translate(0.380554)"/>
</clipPath>
</defs>
</svg>
