<svg width="107" height="32" viewBox="0 0 107 32" fill="none" xmlns="http://www.w3.org/2000/svg">
<g id="Amazon svg" clip-path="url(#clip0_2_4032)">
<path id="path8" fill-rule="evenodd" clip-rule="evenodd" d="M66.024 25.0251C59.846 29.5735 50.8914 32.0001 43.1816 32.0001C32.3713 32.0001 22.6392 28.0065 15.2766 21.3643C14.6981 20.842 15.2164 20.1302 15.9106 20.5369C23.8563 25.1546 33.6809 27.9325 43.8295 27.9325C50.6739 27.9325 58.2032 26.5181 65.1262 23.583C66.1721 23.1393 67.0467 24.2671 66.024 25.0251Z" fill="white" fill-opacity="0.5"/>
<path id="path10" fill-rule="evenodd" clip-rule="evenodd" d="M68.5923 22.09C67.8056 21.0824 63.3722 21.6139 61.3823 21.8497C60.7761 21.9236 60.6835 21.3967 61.2296 21.0177C64.7606 18.5355 70.5544 19.2519 71.2301 20.084C71.9057 20.9206 71.0542 26.7215 67.7362 29.4903C67.2271 29.9155 66.7412 29.689 66.968 29.1251C67.713 27.267 69.3836 23.1023 68.5923 22.09Z" fill="white" fill-opacity="0.5"/>
<path id="path12" fill-rule="evenodd" clip-rule="evenodd" d="M61.5196 3.49464V1.08182C61.5196 0.71666 61.7973 0.47168 62.1305 0.47168H72.9454C73.2925 0.47168 73.5702 0.721283 73.5702 1.08182V3.14797C73.5655 3.49464 73.274 3.94763 72.7557 4.66408L67.1515 12.656C69.234 12.6051 71.4322 12.9148 73.3203 13.978C73.746 14.2183 73.8617 14.5696 73.8941 14.9163V17.4909C73.8941 17.8422 73.5054 18.2536 73.0981 18.0409C69.7708 16.2983 65.3514 16.1088 61.6723 18.0594C61.2975 18.2628 60.9041 17.856 60.9041 17.5047V15.0596C60.9041 14.6667 60.9088 13.9964 61.3021 13.4002L67.7948 4.10016H62.1444C61.7973 4.10016 61.5196 3.85518 61.5196 3.49464Z" fill="white" fill-opacity="0.5"/>
<path id="path14" fill-rule="evenodd" clip-rule="evenodd" d="M22.0693 18.549H18.779C18.4643 18.5259 18.2144 18.2902 18.1913 17.9897V1.12306C18.1913 0.785631 18.4735 0.517537 18.8253 0.517537H21.8934C22.2127 0.531394 22.4673 0.776383 22.4904 1.08145V3.28628H22.5506C23.3511 1.15541 24.8552 0.161621 26.8821 0.161621C28.9414 0.161621 30.2279 1.15541 31.1535 3.28628C31.9494 1.15541 33.7589 0.161621 35.6979 0.161621C37.0769 0.161621 38.5856 0.73016 39.5065 2.00591C40.5477 3.42494 40.3348 5.48647 40.3348 7.29378L40.3302 17.9389C40.3302 18.2763 40.0479 18.549 39.6962 18.549H36.4105C36.082 18.5259 35.8182 18.2624 35.8182 17.9389V8.9994C35.8182 8.28757 35.883 6.51262 35.7256 5.83777C35.4804 4.70532 34.7446 4.38638 33.7913 4.38638C32.9953 4.38638 32.1623 4.91794 31.8245 5.76844C31.4867 6.61893 31.519 8.04259 31.519 8.9994V17.9389C31.519 18.2763 31.2368 18.549 30.8851 18.549H27.5994C27.2662 18.5259 27.007 18.2624 27.007 17.9389L27.0024 8.9994C27.0024 7.11814 27.3125 4.3494 24.9755 4.3494C22.6107 4.3494 22.7033 7.0488 22.7033 8.9994V17.9389C22.7033 18.2763 22.421 18.549 22.0693 18.549Z" fill="white" fill-opacity="0.5"/>
<path id="path16" fill-rule="evenodd" clip-rule="evenodd" d="M82.8808 0.161621C87.763 0.161621 90.4054 4.3494 90.4054 9.67425C90.4054 14.8188 87.4853 18.9003 82.8808 18.9003C78.0865 18.9003 75.4764 14.7125 75.4764 9.49398C75.4764 4.24308 78.1189 0.161621 82.8808 0.161621ZM82.9085 3.60521C80.4836 3.60521 80.3309 6.90551 80.3309 8.96242C80.3309 11.024 80.2985 15.4244 82.8808 15.4244C85.4306 15.4244 85.551 11.8745 85.551 9.71123C85.551 8.28757 85.4908 6.58658 85.0604 5.23687C84.6902 4.06282 83.9544 3.60521 82.9085 3.60521Z" fill="white" fill-opacity="0.5"/>
<path id="path18" fill-rule="evenodd" clip-rule="evenodd" d="M96.7365 18.549H93.4601C93.1315 18.5259 92.8677 18.2624 92.8677 17.9389L92.8631 1.06759C92.8909 0.757894 93.1639 0.517537 93.4971 0.517537H96.5468C96.8337 0.531394 97.0697 0.725539 97.1345 0.989009V3.56823H97.1947C98.1156 1.26172 99.4067 0.161621 101.679 0.161621C103.155 0.161621 104.594 0.693183 105.52 2.1492C106.381 3.4989 106.381 5.76844 106.381 7.40009V18.0175C106.344 18.3133 106.071 18.549 105.747 18.549H102.447C102.146 18.5259 101.896 18.304 101.864 18.0175V8.85611C101.864 7.01183 102.077 4.31242 99.8047 4.31242C99.0041 4.31242 98.2683 4.8486 97.9027 5.66212C97.4399 6.69289 97.3798 7.71903 97.3798 8.85611V17.9389C97.3751 18.2763 97.0882 18.549 96.7365 18.549Z" fill="white" fill-opacity="0.5"/>
<path id="path28" fill-rule="evenodd" clip-rule="evenodd" d="M52.898 10.4926C52.898 11.7729 52.9304 12.8407 52.2826 13.9777C51.7596 14.9022 50.9266 15.4707 50.0057 15.4707C48.7424 15.4707 48.0019 14.5093 48.0019 13.0903C48.0019 10.2892 50.5148 9.78072 52.898 9.78072V10.4926ZM56.2161 18.5029C55.9986 18.6971 55.6839 18.7109 55.4387 18.5815C54.3465 17.6756 54.1475 17.2549 53.5506 16.3906C51.7457 18.2302 50.4639 18.7803 48.1269 18.7803C45.3549 18.7803 43.203 17.0747 43.203 13.6588C43.203 10.9918 44.6468 9.17521 46.7108 8.28773C48.4971 7.50194 50.9914 7.36328 52.898 7.14603V6.72078C52.898 5.93962 52.9582 5.01516 52.4954 4.34031C52.0975 3.73479 51.3293 3.48519 50.649 3.48519C49.3949 3.48519 48.2796 4.12769 48.0066 5.4589C47.951 5.75473 47.7335 6.04593 47.4327 6.0598L44.2442 5.71775C43.9758 5.65766 43.675 5.44041 43.7537 5.02903C44.4849 1.16482 47.9834 0 51.1118 0C52.7129 0 54.8047 0.42525 56.068 1.63628C57.6692 3.12928 57.5165 5.12148 57.5165 7.28932V12.4108C57.5165 13.95 58.1551 14.6249 58.7567 15.4569C58.965 15.7527 59.0113 16.1086 58.7428 16.3305C58.0718 16.8898 56.8779 17.9298 56.2207 18.5122L56.2161 18.5029Z" fill="white" fill-opacity="0.5"/>
<path id="path30" fill-rule="evenodd" clip-rule="evenodd" d="M9.76325 10.4926C9.76325 11.7729 9.79564 12.8407 9.14777 13.9777C8.62483 14.9022 7.79647 15.4707 6.87093 15.4707C5.60757 15.4707 4.87177 14.5093 4.87177 13.0903C4.87177 10.2892 7.38461 9.78072 9.76325 9.78072V10.4926ZM13.0813 18.5029C12.8638 18.6971 12.5491 18.7109 12.3039 18.5815C11.2117 17.6756 11.0174 17.2549 10.4158 16.3906C8.61095 18.2302 7.33371 18.7803 4.99208 18.7803C2.22471 18.7803 0.0682068 17.0747 0.0682068 13.6588C0.0682068 10.9918 1.51668 9.17521 3.57601 8.28773C5.3623 7.50194 7.85663 7.36328 9.76325 7.14603V6.72078C9.76325 5.93962 9.82341 5.01516 9.36527 4.34031C8.96266 3.73479 8.19446 3.48519 7.51881 3.48519C6.26471 3.48519 5.1448 4.12769 4.87177 5.4589C4.81623 5.75473 4.59873 6.04593 4.30256 6.0598L1.10944 5.71775C0.841033 5.65766 0.54486 5.44041 0.618903 5.02903C1.35471 1.16482 4.84862 0 7.97696 0C9.57814 0 11.6699 0.42525 12.9332 1.63628C14.5344 3.12928 14.3817 5.12148 14.3817 7.28932V12.4108C14.3817 13.95 15.0203 14.6249 15.6219 15.4569C15.8348 15.7527 15.8811 16.1086 15.6127 16.3305C14.9416 16.8898 13.7477 17.9298 13.0906 18.5122L13.0813 18.5029Z" fill="white" fill-opacity="0.5"/>
</g>
<defs>
<clipPath id="clip0_2_4032">
<rect width="106.312" height="32" fill="white" transform="translate(0.0682373)"/>
</clipPath>
</defs>
</svg>
