<svg width="33" height="40" viewBox="0 0 33 40" fill="none" xmlns="http://www.w3.org/2000/svg">
<g id="Apple svg" clip-path="url(#clip0_2_4062)">
<g id="Group">
<path id="Vector" d="M31.8966 13.6471C29.2312 15.2941 27.5849 18.1176 27.5849 21.2549C27.5849 24.7843 29.7016 28 32.9157 29.3333C32.2886 31.3726 31.3478 33.2549 30.1719 34.9804C28.4473 37.4118 26.6442 39.9216 23.9788 39.9216C21.3135 39.9216 20.5295 38.3529 17.3938 38.3529C14.3364 38.3529 13.2389 40 10.7303 40C8.22173 40 6.49708 37.7255 4.53724 34.902C1.95025 30.9804 0.460771 26.4314 0.382378 21.6471C0.382378 13.8824 5.39957 9.72549 10.4168 9.72549C13.0821 9.72549 15.2772 11.451 16.9234 11.451C18.4913 11.451 20.9999 9.64706 23.9788 9.64706C27.1146 9.56863 30.0935 11.0588 31.8966 13.6471ZM22.5678 6.35294C23.9004 4.78431 24.606 2.82353 24.6844 0.784314C24.6844 0.54902 24.6844 0.235294 24.606 0C22.3326 0.235294 20.216 1.33333 18.7265 3.05882C17.3938 4.54902 16.6098 6.43137 16.5315 8.47059C16.5315 8.70588 16.5315 8.94118 16.6098 9.17647C16.7666 9.17647 17.0018 9.2549 17.1586 9.2549C19.2752 9.09804 21.2351 8 22.5678 6.35294Z" fill="white" fill-opacity="0.5"/>
</g>
</g>
<defs>
<clipPath id="clip0_2_4062">
<rect width="32.5333" height="40" fill="white" transform="translate(0.380554)"/>
</clipPath>
</defs>
</svg>
