<svg width="81" height="32" viewBox="0 0 81 32" fill="none" xmlns="http://www.w3.org/2000/svg">
<g id="eBay svg" clip-path="url(#clip0_2_4057)">
<path id="e" d="M10.7456 6.99658C5.10676 6.99658 0.407898 9.38243 0.407898 16.5804C0.407898 22.2828 3.56754 25.8738 10.8912 25.8738C19.5115 25.8738 20.0641 20.2106 20.0641 20.2106H15.8872C15.8872 20.2106 14.9916 23.26 10.6364 23.26C7.08923 23.26 4.53796 20.8703 4.53796 17.5207H20.5009V15.4187C20.5009 12.1049 18.3916 6.99658 10.7456 6.99658ZM10.6 9.68296C13.9766 9.68296 16.2785 11.7459 16.2785 14.8379H4.63035C4.63035 11.5554 7.63493 9.68296 10.6 9.68296Z" fill="white" fill-opacity="0.5"/>
<path id="b" d="M20.4982 0.0263672V22.2589C20.4982 23.5208 20.4079 25.2928 20.4079 25.2928H24.3918C24.3918 25.2928 24.5348 24.0202 24.5348 22.8571C24.5348 22.8571 26.5031 25.9281 31.8551 25.9281C37.491 25.9281 41.3193 22.0258 41.3193 16.435C41.3193 11.234 37.8029 7.05088 31.8642 7.05088C26.3031 7.05088 24.5751 10.0458 24.5751 10.0458V0.0263672H20.4982ZM30.8359 9.80078C34.6631 9.80078 37.0968 12.6336 37.0968 16.435C37.0968 20.5114 34.286 23.1782 30.8632 23.1782C26.7785 23.1782 24.5751 19.9974 24.5751 16.4713C24.5751 13.1857 26.5522 9.80078 30.8359 9.80078Z" fill="white" fill-opacity="0.5"/>
<path id="a" d="M51.2202 6.99658C42.737 6.99658 42.1929 11.6291 42.1929 12.3693H46.4154C46.4154 12.3693 46.6368 9.66481 50.929 9.66481C53.7182 9.66481 55.8795 10.938 55.8795 13.3858V14.2571H50.929C44.3569 14.2571 40.8825 16.1745 40.8825 20.0654C40.8825 23.8947 44.0928 25.9782 48.431 25.9782C54.3434 25.9782 56.248 22.72 56.248 22.72C56.248 24.016 56.3482 25.293 56.3482 25.293H60.1019C60.1019 25.293 59.9563 23.7101 59.9563 22.6974V13.9439C59.9563 8.20446 55.3143 6.99658 51.2202 6.99658ZM55.8795 16.8708V18.0325C55.8795 19.5476 54.942 23.3145 49.423 23.3145C46.4007 23.3145 45.105 21.8103 45.105 20.0654C45.105 16.8913 49.4686 16.8708 55.8795 16.8708Z" fill="white" fill-opacity="0.5"/>
<path id="y" d="M57.6833 7.72363H62.4335L69.2508 21.3448L76.0525 7.72363H80.3555L67.9664 31.9736H63.4528L67.0278 25.2136L57.6833 7.72363Z" fill="white" fill-opacity="0.5"/>
</g>
<defs>
<clipPath id="clip0_2_4057">
<rect width="80" height="32" fill="white" transform="translate(0.380554)"/>
</clipPath>
</defs>
</svg>
