<svg width="184" height="28" viewBox="0 0 184 28" fill="none" xmlns="http://www.w3.org/2000/svg">
<g id="Samsung Electronics svg" clip-path="url(#clip0_2_4065)">
<g id="Group">
<path id="Vector" d="M7.85416 7.58753C7.72008 7.05036 7.7536 6.51319 7.82064 6.21103C7.98823 5.3717 8.55805 4.46523 10.2005 4.46523C11.7423 4.46523 12.6138 5.40528 12.6138 6.84892C12.6138 7.31894 12.6138 8.46043 12.6138 8.46043H19.1164V6.61391C19.1499 0.906475 14.0216 0 10.3345 0C5.70898 0 1.92139 1.54436 1.2175 5.80815C1.01639 6.98321 0.982869 8.02398 1.28454 9.33333C2.42416 14.6715 11.7088 16.2158 13.0495 19.6067C13.3177 20.2446 13.2171 21.0504 13.1166 21.554C12.9154 22.4269 12.3121 23.3333 10.5692 23.3333C8.92675 23.3333 7.95471 22.3933 7.95471 20.9496V18.4317H0.915833V20.446C0.915833 26.2878 5.50786 28.0336 10.4016 28.0336C15.1277 28.0336 18.9823 26.4221 19.6191 22.0576C19.9208 19.8082 19.6862 18.3309 19.5856 17.7938C18.513 12.2542 8.59157 10.6427 7.85416 7.58753ZM92.7565 7.6211C92.6559 7.11751 92.6894 6.54676 92.723 6.27818C92.9241 5.43885 93.4604 4.53237 95.1028 4.53237C96.6111 4.53237 97.4826 5.47242 97.4826 6.88249C97.4826 7.35252 97.4826 8.494 97.4826 8.494H103.918V6.68106C103.918 1.04077 98.8904 0.167866 95.2368 0.167866C90.6448 0.167866 86.8907 1.67866 86.1868 5.90887C86.0193 7.05036 85.9522 8.09113 86.2539 9.40048C87.36 14.6715 96.5441 16.2158 97.8848 19.5731C98.1194 20.211 98.0524 21.0168 97.9183 21.4868C97.7172 22.3597 97.1474 23.2326 95.4044 23.2326C93.7955 23.2326 92.79 22.2926 92.79 20.8825V18.3645H85.8517V20.3453C85.8517 26.1199 90.3767 27.8657 95.2368 27.8657C99.8959 27.8657 103.751 26.2542 104.354 21.9568C104.656 19.7074 104.421 18.2638 104.32 17.7266C103.281 12.2878 93.4939 10.6763 92.7565 7.6211ZM152.017 21.8897L145.883 0.839329H136.196V26.7242H142.598L142.23 5.0024L148.833 26.7242H158.118V0.839329H151.682L152.017 21.8897ZM28.8702 0.839329L24.0101 26.9928H31.0489L34.7025 2.78657L38.2554 26.9928H45.2608L40.4676 0.839329H28.8702ZM68.288 0.839329L65.0032 21.2854L61.7184 0.839329H51.0595L50.4897 26.9928H57.0258L57.1934 2.78657L61.6848 26.9928H68.288L72.7795 2.78657L72.947 26.9928H79.4832L78.9133 0.839329H68.288ZM128.956 0.839329H122.353V20.1775C122.353 20.5132 122.353 20.8825 122.286 21.1847C122.152 21.8225 121.616 23.0983 119.772 23.0983C117.962 23.0983 117.426 21.8561 117.292 21.1847C117.225 20.9161 117.225 20.5132 117.225 20.1775V0.839329H110.622V19.5731C110.622 20.0432 110.655 21.0504 110.689 21.2854C111.158 26.1535 114.979 27.765 119.772 27.765C124.566 27.765 128.42 26.1871 128.889 21.2854C128.923 21.0168 128.99 20.0432 128.956 19.5731V0.839329ZM174.273 12.2878V16.1151H176.955V19.9089C176.955 20.2446 176.955 20.6139 176.888 20.9161C176.787 21.6211 176.117 22.8297 174.206 22.8297C172.329 22.8297 171.659 21.6211 171.558 20.9161C171.525 20.6139 171.491 20.2446 171.491 19.9089V7.95683C171.491 7.52038 171.525 7.08393 171.625 6.71463C171.76 6.07674 172.329 4.83453 174.206 4.83453C176.217 4.83453 176.687 6.14389 176.821 6.71463C176.888 7.08393 176.888 7.72182 176.888 7.72182V9.16547H183.457V8.29257C183.457 8.29257 183.491 7.38609 183.424 6.54676C182.921 1.67866 178.865 0.134293 174.24 0.134293C169.614 0.134293 165.659 1.71223 165.089 6.58034C165.022 7.01679 164.955 7.82254 164.955 8.32614V19.3046C164.955 19.7746 164.955 20.1439 165.056 21.0168C165.492 25.7842 169.614 27.4628 174.24 27.4628C178.899 27.4628 182.988 25.7842 183.424 21.0168C183.491 20.1439 183.525 19.7746 183.525 19.3046V12.2878H174.273Z" fill="white" fill-opacity="0.5"/>
</g>
</g>
<defs>
<clipPath id="clip0_2_4065">
<rect width="182.609" height="28" fill="white" transform="translate(0.913879)"/>
</clipPath>
</defs>
</svg>
